<?xml version="1.0" standalone="no"?>
<!DOCTYPE svg PUBLIC "-//W3C//DTD SVG 20010904//EN"
 "http://www.w3.org/TR/2001/REC-SVG-20010904/DTD/svg10.dtd">
<svg version="1.0" xmlns="http://www.w3.org/2000/svg"
 width="700.000000pt" height="700.000000pt" viewBox="0 0 700.000000 700.000000"
 preserveAspectRatio="xMidYMid meet">
<metadata>
Created by potrace 1.14, written by Peter Selinger 2001-2017
</metadata>
<g transform="translate(0.000000,700.000000) scale(0.100000,-0.100000)"
fill="#000000" stroke="none">
<path d="M4348 6425 c-2 -1 -23 -5 -48 -8 -218 -25 -415 -221 -436 -434 -3
-29 -7 -61 -8 -70 -2 -9 4 -47 11 -83 8 -36 15 -74 16 -85 1 -11 -86 -170
-193 -353 -107 -182 -205 -349 -217 -370 -12 -21 -218 -375 -459 -787 -240
-413 -498 -853 -571 -980 -74 -126 -139 -237 -144 -245 -45 -76 -123 -209
-158 -270 -23 -41 -51 -91 -63 -110 -38 -65 -197 -337 -216 -371 -11 -19 -42
-72 -70 -119 -59 -100 -163 -280 -211 -365 -18 -33 -39 -67 -45 -75 -7 -8 -21
-32 -31 -53 -26 -50 -40 -61 -104 -81 -157 -50 -294 -200 -331 -361 -59 -258
101 -519 368 -598 53 -16 203 -18 265 -3 49 11 131 52 182 91 54 40 130 136
158 199 43 95 54 217 27 317 l-12 47 155 263 c210 359 508 868 525 899 7 14
32 57 55 96 23 39 138 235 255 435 118 200 218 371 223 379 18 31 203 346 222
380 11 19 58 100 105 180 46 80 95 163 108 186 13 22 56 97 97 165 62 105 247
422 311 532 10 18 64 111 121 207 56 96 136 234 178 306 l77 130 53 17 c133
42 258 161 311 297 26 64 30 93 29 195 0 138 -51 252 -159 358 -43 42 -163
113 -205 121 -8 2 -30 6 -49 10 -42 8 -117 15 -122 11z m143 -263 c177 -87
216 -315 78 -453 -136 -136 -369 -94 -452 80 -32 69 -30 179 5 246 34 64 70
98 138 129 72 32 164 31 231 -2z m-2831 -4805 c156 -47 237 -233 166 -381 -29
-60 -39 -73 -86 -108 -146 -110 -355 -47 -423 128 -22 57 -17 166 11 219 42
82 122 141 211 154 48 7 64 6 121 -12z"/>
<path d="M6445 6423 c-227 -37 -363 -138 -440 -328 -25 -60 -29 -84 -29 -170
-1 -55 3 -116 8 -135 5 -19 9 -42 10 -50 0 -8 -42 -88 -94 -178 -52 -89 -99
-170 -105 -180 -5 -9 -35 -60 -65 -112 -30 -52 -59 -103 -65 -113 -5 -9 -98
-167 -204 -350 -107 -182 -279 -476 -381 -652 -103 -176 -274 -468 -380 -650
-106 -181 -203 -348 -215 -370 -24 -41 -278 -478 -294 -505 -19 -31 -337 -575
-366 -625 -16 -29 -77 -134 -135 -233 l-105 -181 -65 -21 c-121 -41 -233 -134
-289 -240 -183 -344 83 -752 479 -735 309 13 548 317 473 602 -13 52 -13 55
14 106 15 29 30 54 33 57 4 3 20 30 37 60 46 82 163 284 547 940 192 327 443
757 559 955 115 198 245 420 289 492 43 73 78 137 78 143 0 5 4 10 8 10 4 0
13 12 20 28 6 15 20 41 31 58 23 37 455 773 486 829 13 22 89 152 169 289
l145 249 51 18 c166 58 291 193 335 360 18 69 12 207 -12 280 -62 184 -231
325 -413 345 -87 10 -95 10 -115 7z m159 -262 c79 -39 124 -92 148 -176 66
-228 -166 -428 -384 -332 -137 61 -202 231 -140 369 64 144 235 207 376 139z
m-2809 -4810 c52 -21 113 -79 139 -134 95 -197 -55 -421 -270 -404 -181 14
-296 182 -247 360 43 156 222 240 378 178z"/>
<path d="M420 4979 c-315 -79 -484 -358 -395 -654 47 -159 206 -306 373 -345
53 -12 193 -17 210 -6 5 3 24 8 43 11 67 12 162 68 229 135 204 204 197 525
-16 734 -122 121 -280 165 -444 125z m227 -250 c48 -23 107 -87 130 -139 8
-19 16 -60 18 -91 6 -110 -50 -211 -147 -264 -46 -26 -63 -30 -133 -29 -81 0
-117 11 -173 55 -40 31 -82 90 -93 133 -36 131 6 249 114 321 86 57 184 62
284 14z"/>
<path d="M409 3171 c-152 -41 -252 -109 -324 -217 -132 -198 -103 -457 71
-629 181 -179 460 -200 663 -50 178 131 250 341 186 543 -68 216 -240 356
-461 375 -23 2 -81 -7 -135 -22z m231 -240 c99 -51 154 -143 154 -256 -1 -139
-92 -248 -229 -272 -180 -32 -337 110 -328 296 5 99 71 193 166 236 69 31 172
29 237 -4z"/>
</g>
</svg>
